<svg width="1809pt" height="620pt" viewBox="0.00 0.00 1809.00 620.00" xmlns="http://www.w3.org/2000/svg" xmlns:xlink="http://www.w3.org/1999/xlink">
<g id="graph1" class="graph" transform="scale(1 1) rotate(0) translate(4 616)">
<title>graphname</title>
<polygon fill="white" stroke="white" points="-4,5 -4,-616 1806,-616 1806,5 -4,5"></polygon>
<!-- Ashta&#45;kashte -->
<g id="node1" class="node"><title>Ashta-kashte</title>
<ellipse fill="none" stroke="black" cx="1101" cy="-594" rx="61.1703" ry="18"></ellipse>
<text text-anchor="middle" x="1101" y="-589.8" font-family="Times,serif" font-size="14.00">Ashta-kashte</text>
</g>
<!-- Chaturanga -->
<g id="node3" class="node"><title>Chaturanga</title>
<ellipse fill="none" stroke="black" cx="1101" cy="-522" rx="55.3236" ry="18"></ellipse>
<text text-anchor="middle" x="1101" y="-517.8" font-family="Times,serif" font-size="14.00">Chaturanga</text>
</g>
<!-- Ashta&#45;kashte&#45;&gt;Chaturanga -->
<g id="edge2" class="edge"><title>Ashta-kashte-&gt;Chaturanga</title>
<path fill="none" stroke="black" stroke-dasharray="1,5" d="M1101,-575.697C1101,-567.983 1101,-558.712 1101,-550.112"></path>
<polygon fill="black" stroke="black" points="1104.5,-550.104 1101,-540.104 1097.5,-550.104 1104.5,-550.104"></polygon>
</g>
<!-- Chaturaji -->
<g id="node5" class="node"><title>Chaturaji</title>
<ellipse fill="none" stroke="black" cx="857" cy="-450" rx="46.4596" ry="18"></ellipse>
<text text-anchor="middle" x="857" y="-445.8" font-family="Times,serif" font-size="14.00">Chaturaji</text>
</g>
<!-- Chaturanga&#45;&gt;Chaturaji -->
<g id="edge4" class="edge"><title>Chaturanga-&gt;Chaturaji</title>
<path fill="none" stroke="black" d="M1060.23,-509.758C1022.1,-499.186 963.608,-482.814 913,-468 909.426,-466.954 905.727,-465.859 902.012,-464.75"></path>
<polygon fill="black" stroke="black" points="902.802,-461.333 892.218,-461.808 900.788,-468.037 902.802,-461.333"></polygon>
</g>
<!-- Shatranj -->
<g id="node7" class="node"><title>Shatranj</title>
<ellipse fill="none" stroke="black" cx="965" cy="-450" rx="43.3265" ry="18"></ellipse>
<text text-anchor="middle" x="965" y="-445.8" font-family="Times,serif" font-size="14.00">Shatranj</text>
</g>
<!-- Chaturanga&#45;&gt;Shatranj -->
<g id="edge6" class="edge"><title>Chaturanga-&gt;Shatranj</title>
<path fill="none" stroke="black" d="M1072.82,-506.496C1051.76,-495.655 1022.83,-480.765 1000.24,-469.137"></path>
<polygon fill="black" stroke="black" points="1001.79,-466 991.298,-464.536 998.587,-472.224 1001.79,-466"></polygon>
</g>
<!-- Makruk -->
<g id="node15" class="node"><title>Makruk</title>
<ellipse fill="none" stroke="black" cx="1238" cy="-450" rx="41.4107" ry="18"></ellipse>
<text text-anchor="middle" x="1238" y="-445.8" font-family="Times,serif" font-size="14.00">Makruk</text>
</g>
<!-- Chaturanga&#45;&gt;Makruk -->
<g id="edge14" class="edge"><title>Chaturanga-&gt;Makruk</title>
<path fill="none" stroke="black" d="M1129.39,-506.496C1150.74,-495.585 1180.13,-480.571 1202.95,-468.911"></path>
<polygon fill="black" stroke="black" points="1204.65,-471.968 1211.97,-464.302 1201.47,-465.735 1204.65,-471.968"></polygon>
</g>
<!-- Qiguo Xiangqi -->
<g id="node22" class="node"><title>Qiguo Xiangqi</title>
<ellipse fill="none" stroke="black" cx="1504" cy="-450" rx="68.5525" ry="18"></ellipse>
<text text-anchor="middle" x="1504" y="-445.8" font-family="Times,serif" font-size="14.00">Qiguo Xiangqi</text>
</g>
<!-- Chaturanga&#45;&gt;Qiguo Xiangqi -->
<g id="edge22" class="edge"><title>Chaturanga-&gt;Qiguo Xiangqi</title>
<path fill="none" stroke="black" stroke-dasharray="1,5" d="M1148.81,-512.695C1220.79,-500.192 1357.19,-476.5 1438.41,-462.393"></path>
<polygon fill="black" stroke="black" points="1439.27,-465.797 1448.52,-460.637 1438.07,-458.9 1439.27,-465.797"></polygon>
</g>
<!-- Shatranj al&#45;husun -->
<g id="node9" class="node"><title>Shatranj al-husun</title>
<ellipse fill="none" stroke="black" cx="813" cy="-378" rx="78.3301" ry="18"></ellipse>
<text text-anchor="middle" x="813" y="-373.8" font-family="Times,serif" font-size="14.00">Shatranj al-husun</text>
</g>
<!-- Shatranj&#45;&gt;Shatranj al&#45;husun -->
<g id="edge8" class="edge"><title>Shatranj-&gt;Shatranj al-husun</title>
<path fill="none" stroke="black" d="M937.121,-436.161C914.298,-425.65 881.639,-410.61 855.55,-398.595"></path>
<polygon fill="black" stroke="black" points="856.813,-395.324 846.266,-394.32 853.885,-401.682 856.813,-395.324"></polygon>
</g>
<!-- Senterej -->
<g id="node13" class="node"><title>Senterej</title>
<ellipse fill="none" stroke="black" cx="965" cy="-378" rx="42.5127" ry="18"></ellipse>
<text text-anchor="middle" x="965" y="-373.8" font-family="Times,serif" font-size="14.00">Senterej</text>
</g>
<!-- Shatranj&#45;&gt;Senterej -->
<g id="edge12" class="edge"><title>Shatranj-&gt;Senterej</title>
<path fill="none" stroke="black" d="M965,-431.697C965,-423.983 965,-414.712 965,-406.112"></path>
<polygon fill="black" stroke="black" points="968.5,-406.104 965,-396.104 961.5,-406.104 968.5,-406.104"></polygon>
</g>
<!-- Courier chess -->
<g id="node101" class="node"><title>Courier chess</title>
<ellipse fill="none" stroke="black" cx="604" cy="-378" rx="63.2927" ry="18"></ellipse>
<text text-anchor="middle" x="604" y="-373.8" font-family="Times,serif" font-size="14.00">Courier chess</text>
</g>
<!-- Shatranj&#45;&gt;Courier chess -->
<g id="edge104" class="edge"><title>Shatranj-&gt;Courier chess</title>
<path fill="none" stroke="black" d="M932.974,-437.933C926.105,-435.784 918.851,-433.68 912,-432 866.925,-420.95 744.556,-401.002 668.323,-388.981"></path>
<polygon fill="black" stroke="black" points="668.768,-385.508 658.345,-387.412 667.68,-392.423 668.768,-385.508"></polygon>
</g>
<!-- Tamerlane chess -->
<g id="node11" class="node"><title>Tamerlane chess</title>
<ellipse fill="none" stroke="black" cx="802" cy="-306" rx="75.4734" ry="18"></ellipse>
<text text-anchor="middle" x="802" y="-301.8" font-family="Times,serif" font-size="14.00">Tamerlane chess</text>
</g>
<!-- Shatranj al&#45;husun&#45;&gt;Tamerlane chess -->
<g id="edge10" class="edge"><title>Shatranj al-husun-&gt;Tamerlane chess</title>
<path fill="none" stroke="black" d="M810.281,-359.697C809.069,-351.983 807.612,-342.712 806.261,-334.112"></path>
<polygon fill="black" stroke="black" points="809.698,-333.44 804.688,-324.104 802.783,-334.526 809.698,-333.44"></polygon>
</g>
<!-- Ouk&#45;Khmer -->
<g id="node17" class="node"><title>Ouk-Khmer</title>
<ellipse fill="none" stroke="black" cx="1238" cy="-378" rx="57.5391" ry="18"></ellipse>
<text text-anchor="middle" x="1238" y="-373.8" font-family="Times,serif" font-size="14.00">Ouk-Khmer</text>
</g>
<!-- Makruk&#45;&gt;Ouk&#45;Khmer -->
<g id="edge16" class="edge"><title>Makruk-&gt;Ouk-Khmer</title>
<path fill="none" stroke="black" d="M1238,-431.697C1238,-423.983 1238,-414.712 1238,-406.112"></path>
<polygon fill="black" stroke="black" points="1241.5,-406.104 1238,-396.104 1234.5,-406.104 1241.5,-406.104"></polygon>
</g>
<!-- Sittuyin -->
<g id="node19" class="node"><title>Sittuyin</title>
<ellipse fill="none" stroke="black" cx="1355" cy="-378" rx="41.4368" ry="18"></ellipse>
<text text-anchor="middle" x="1355" y="-373.8" font-family="Times,serif" font-size="14.00">Sittuyin</text>
</g>
<!-- Makruk&#45;&gt;Sittuyin -->
<g id="edge18" class="edge"><title>Makruk-&gt;Sittuyin</title>
<path fill="none" stroke="black" d="M1261.4,-435.003C1279.01,-424.463 1303.37,-409.891 1322.82,-398.254"></path>
<polygon fill="black" stroke="black" points="1324.86,-401.111 1331.65,-392.973 1321.27,-395.104 1324.86,-401.111"></polygon>
</g>
<!-- Xiangqi -->
<g id="node25" class="node"><title>Xiangqi</title>
<ellipse fill="none" stroke="black" cx="1504" cy="-378" rx="42.2212" ry="18"></ellipse>
<text text-anchor="middle" x="1504" y="-373.8" font-family="Times,serif" font-size="14.00">Xiangqi</text>
</g>
<!-- Makruk&#45;&gt;Xiangqi -->
<g id="edge26" class="edge"><title>Makruk-&gt;Xiangqi</title>
<path fill="none" stroke="black" stroke-dasharray="1,5" d="M1272.5,-439.92C1320.31,-427.34 1406.74,-404.594 1459.4,-390.738"></path>
<polygon fill="black" stroke="black" points="1460.36,-394.104 1469.14,-388.175 1458.58,-387.335 1460.36,-394.104"></polygon>
</g>
<!-- Heian shogi -->
<g id="node48" class="node"><title>Heian shogi</title>
<ellipse fill="none" stroke="black" cx="1105" cy="-378" rx="57.1488" ry="18"></ellipse>
<text text-anchor="middle" x="1105" y="-373.8" font-family="Times,serif" font-size="14.00">Heian shogi</text>
</g>
<!-- Makruk&#45;&gt;Heian shogi -->
<g id="edge48" class="edge"><title>Makruk-&gt;Heian shogi</title>
<path fill="none" stroke="black" stroke-dasharray="1,5" d="M1212.67,-435.669C1192.67,-425.14 1164.47,-410.298 1141.94,-398.444"></path>
<polygon fill="black" stroke="black" points="1143.47,-395.294 1132.99,-393.734 1140.21,-401.488 1143.47,-395.294"></polygon>
</g>
<!-- Go -->
<g id="node20" class="node"><title>Go</title>
<ellipse fill="none" stroke="black" cx="1648" cy="-522" rx="27" ry="18"></ellipse>
<text text-anchor="middle" x="1648" y="-517.8" font-family="Times,serif" font-size="14.00">Go</text>
</g>
<!-- Go&#45;&gt;Qiguo Xiangqi -->
<g id="edge20" class="edge"><title>Go-&gt;Qiguo Xiangqi</title>
<path fill="none" stroke="black" stroke-dasharray="1,5" d="M1626.75,-510.671C1605.13,-500.159 1571.08,-483.606 1544.32,-470.598"></path>
<polygon fill="black" stroke="black" points="1545.71,-467.385 1535.19,-466.161 1542.65,-473.68 1545.71,-467.385"></polygon>
</g>
<!-- Ko shogi -->
<g id="node85" class="node"><title>Ko shogi</title>
<ellipse fill="none" stroke="black" cx="1755" cy="-90" rx="46.2632" ry="18"></ellipse>
<text text-anchor="middle" x="1755" y="-85.8" font-family="Times,serif" font-size="14.00">Ko shogi</text>
</g>
<!-- Go&#45;&gt;Ko shogi -->
<g id="edge90" class="edge"><title>Go-&gt;Ko shogi</title>
<path fill="none" stroke="black" stroke-dasharray="1,5" d="M1670.34,-511.643C1711.01,-492.94 1793,-446.826 1793,-379 1793,-379 1793,-379 1793,-233 1793,-191.633 1777.77,-145.722 1766.59,-117.605"></path>
<polygon fill="black" stroke="black" points="1769.72,-116.019 1762.69,-108.093 1763.24,-118.673 1769.72,-116.019"></polygon>
</g>
<!-- Qiguo Xiangqi&#45;&gt;Xiangqi -->
<g id="edge24" class="edge"><title>Qiguo Xiangqi-&gt;Xiangqi</title>
<path fill="none" stroke="black" stroke-dasharray="1,5" d="M1504,-431.697C1504,-423.983 1504,-414.712 1504,-406.112"></path>
<polygon fill="black" stroke="black" points="1507.5,-406.104 1504,-396.104 1500.5,-406.104 1507.5,-406.104"></polygon>
</g>
<!-- Siguo Xiangqi -->
<g id="node28" class="node"><title>Siguo Xiangqi</title>
<ellipse fill="none" stroke="black" cx="1456" cy="-306" rx="67.1485" ry="18"></ellipse>
<text text-anchor="middle" x="1456" y="-301.8" font-family="Times,serif" font-size="14.00">Siguo Xiangqi</text>
</g>
<!-- Xiangqi&#45;&gt;Siguo Xiangqi -->
<g id="edge28" class="edge"><title>Xiangqi-&gt;Siguo Xiangqi</title>
<path fill="none" stroke="black" d="M1492.62,-360.411C1486.91,-352.077 1479.86,-341.797 1473.48,-332.488"></path>
<polygon fill="black" stroke="black" points="1476.17,-330.224 1467.63,-323.956 1470.4,-334.183 1476.17,-330.224"></polygon>
</g>
<!-- Shou Dou Qi -->
<g id="node30" class="node"><title>Shou Dou Qi</title>
<ellipse fill="none" stroke="black" cx="1641" cy="-306" rx="62.003" ry="18"></ellipse>
<text text-anchor="middle" x="1641" y="-301.8" font-family="Times,serif" font-size="14.00">Shou Dou Qi</text>
</g>
<!-- Xiangqi&#45;&gt;Shou Dou Qi -->
<g id="edge30" class="edge"><title>Xiangqi-&gt;Shou Dou Qi</title>
<path fill="none" stroke="black" stroke-dasharray="1,5" d="M1530.09,-363.669C1550.56,-353.21 1579.36,-338.494 1602.48,-326.68"></path>
<polygon fill="black" stroke="black" points="1604.37,-329.647 1611.68,-321.981 1601.18,-323.414 1604.37,-329.647"></polygon>
</g>
<!-- Banqi -->
<g id="node32" class="node"><title>Banqi</title>
<ellipse fill="none" stroke="black" cx="1551" cy="-234" rx="34.1562" ry="18"></ellipse>
<text text-anchor="middle" x="1551" y="-229.8" font-family="Times,serif" font-size="14.00">Banqi</text>
</g>
<!-- Xiangqi&#45;&gt;Banqi -->
<g id="edge32" class="edge"><title>Xiangqi-&gt;Banqi</title>
<path fill="none" stroke="black" stroke-dasharray="1,5" d="M1514.32,-360.363C1520.24,-350.185 1527.38,-336.717 1532,-324 1539.31,-303.858 1544.21,-280.079 1547.2,-262.169"></path>
<polygon fill="black" stroke="black" points="1550.68,-262.541 1548.78,-252.119 1543.77,-261.453 1550.68,-262.541"></polygon>
</g>
<!-- Janggi -->
<g id="node39" class="node"><title>Janggi</title>
<ellipse fill="none" stroke="black" cx="1335" cy="-306" rx="36.3727" ry="18"></ellipse>
<text text-anchor="middle" x="1335" y="-301.8" font-family="Times,serif" font-size="14.00">Janggi</text>
</g>
<!-- Xiangqi&#45;&gt;Janggi -->
<g id="edge40" class="edge"><title>Xiangqi-&gt;Janggi</title>
<path fill="none" stroke="black" d="M1474.95,-364.967C1446.33,-353.115 1402.54,-334.973 1371.57,-322.147"></path>
<polygon fill="black" stroke="black" points="1372.58,-318.777 1362,-318.184 1369.9,-325.244 1372.58,-318.777"></polygon>
</g>
<!-- Xiangqi&#45;&gt;Ko shogi -->
<g id="edge88" class="edge"><title>Xiangqi-&gt;Ko shogi</title>
<path fill="none" stroke="black" stroke-dasharray="1,5" d="M1543.85,-371.984C1597.64,-364.385 1689.35,-348.224 1712,-324 1765.42,-266.879 1763.21,-166.091 1758.54,-118.001"></path>
<polygon fill="black" stroke="black" points="1762.01,-117.6 1757.46,-108.035 1755.05,-118.354 1762.01,-117.6"></polygon>
</g>
<!-- Shou Dou Qi&#45;&gt;Banqi -->
<g id="edge34" class="edge"><title>Shou Dou Qi-&gt;Banqi</title>
<path fill="none" stroke="black" stroke-dasharray="1,5" d="M1620.13,-288.765C1607.4,-278.865 1591.01,-266.121 1577.39,-255.525"></path>
<polygon fill="black" stroke="black" points="1579.36,-252.627 1569.32,-249.25 1575.07,-258.152 1579.36,-252.627"></polygon>
</g>
<!-- Luzhanqi -->
<g id="node35" class="node"><title>Luzhanqi</title>
<ellipse fill="none" stroke="black" cx="1651" cy="-234" rx="47.2604" ry="18"></ellipse>
<text text-anchor="middle" x="1651" y="-229.8" font-family="Times,serif" font-size="14.00">Luzhanqi</text>
</g>
<!-- Shou Dou Qi&#45;&gt;Luzhanqi -->
<g id="edge36" class="edge"><title>Shou Dou Qi-&gt;Luzhanqi</title>
<path fill="none" stroke="black" d="M1643.47,-287.697C1644.57,-279.983 1645.9,-270.712 1647.13,-262.112"></path>
<polygon fill="black" stroke="black" points="1650.61,-262.499 1648.56,-252.104 1643.68,-261.509 1650.61,-262.499"></polygon>
</g>
<!-- Stratego -->
<g id="node37" class="node"><title>Stratego</title>
<ellipse fill="none" stroke="black" cx="1651" cy="-162" rx="76.3055" ry="18"></ellipse>
<text text-anchor="middle" x="1651" y="-157.8" font-family="Times,serif" font-size="14.00">Stratego</text>
</g>
<!-- Luzhanqi&#45;&gt;Stratego -->
<g id="edge38" class="edge"><title>Luzhanqi-&gt;Stratego</title>
<path fill="none" stroke="black" d="M1651,-215.697C1651,-207.983 1651,-198.712 1651,-190.112"></path>
<polygon fill="black" stroke="black" points="1654.5,-190.104 1651,-180.104 1647.5,-190.104 1654.5,-190.104"></polygon>
</g>
<!-- Gwangsanghui -->
<g id="node41" class="node"><title>Gwangsanghui</title>
<ellipse fill="none" stroke="black" cx="1245" cy="-234" rx="68.4444" ry="18"></ellipse>
<text text-anchor="middle" x="1245" y="-229.8" font-family="Times,serif" font-size="14.00">Gwangsanghui</text>
</g>
<!-- Janggi&#45;&gt;Gwangsanghui -->
<g id="edge42" class="edge"><title>Janggi-&gt;Gwangsanghui</title>
<path fill="none" stroke="black" d="M1316.35,-290.496C1304.16,-281.011 1287.98,-268.426 1274.11,-257.639"></path>
<polygon fill="black" stroke="black" points="1275.87,-254.575 1265.83,-251.198 1271.57,-260.1 1275.87,-254.575"></polygon>
</g>
<!-- Sanjangjanggi -->
<g id="node43" class="node"><title>Sanjangjanggi</title>
<ellipse fill="none" stroke="black" cx="1398" cy="-234" rx="65.9313" ry="18"></ellipse>
<text text-anchor="middle" x="1398" y="-229.8" font-family="Times,serif" font-size="14.00">Sanjangjanggi</text>
</g>
<!-- Janggi&#45;&gt;Sanjangjanggi -->
<g id="edge44" class="edge"><title>Janggi-&gt;Sanjangjanggi</title>
<path fill="none" stroke="black" d="M1349.3,-289.116C1357.2,-280.331 1367.19,-269.229 1376.07,-259.37"></path>
<polygon fill="black" stroke="black" points="1378.79,-261.572 1382.88,-251.797 1373.59,-256.889 1378.79,-261.572"></polygon>
</g>
<!-- Sho shogi -->
<g id="node44" class="node"><title>Sho shogi</title>
<ellipse fill="none" stroke="black" cx="1106" cy="-306" rx="49.1016" ry="18"></ellipse>
<text text-anchor="middle" x="1106" y="-301.8" font-family="Times,serif" font-size="14.00">Sho shogi</text>
</g>
<!-- Shogi -->
<g id="node46" class="node"><title>Shogi</title>
<ellipse fill="none" stroke="black" cx="1098" cy="-234" rx="33.3604" ry="18"></ellipse>
<text text-anchor="middle" x="1098" y="-229.8" font-family="Times,serif" font-size="14.00">Shogi</text>
</g>
<!-- Sho shogi&#45;&gt;Shogi -->
<g id="edge46" class="edge"><title>Sho shogi-&gt;Shogi</title>
<path fill="none" stroke="black" d="M1104.02,-287.697C1103.14,-279.983 1102.08,-270.712 1101.1,-262.112"></path>
<polygon fill="black" stroke="black" points="1104.57,-261.642 1099.95,-252.104 1097.61,-262.437 1104.57,-261.642"></polygon>
</g>
<!-- Dobutsu shogi -->
<g id="node79" class="node"><title>Dobutsu shogi</title>
<ellipse fill="none" stroke="black" cx="1490" cy="-162" rx="67.1499" ry="18"></ellipse>
<text text-anchor="middle" x="1490" y="-157.8" font-family="Times,serif" font-size="14.00">Dobutsu shogi</text>
</g>
<!-- Shogi&#45;&gt;Dobutsu shogi -->
<g id="edge80" class="edge"><title>Shogi-&gt;Dobutsu shogi</title>
<path fill="none" stroke="black" stroke-dasharray="1,5" d="M1127.07,-225.175C1139.33,-222.046 1153.8,-218.581 1167,-216 1275.87,-194.706 1304.9,-200.123 1414,-180 1419.71,-178.947 1425.64,-177.77 1431.55,-176.539"></path>
<polygon fill="black" stroke="black" points="1432.41,-179.936 1441.46,-174.429 1430.95,-173.089 1432.41,-179.936"></polygon>
</g>
<!-- Yonin shogi -->
<g id="node83" class="node"><title>Yonin shogi</title>
<ellipse fill="none" stroke="black" cx="820" cy="-162" rx="58.2737" ry="18"></ellipse>
<text text-anchor="middle" x="820" y="-157.8" font-family="Times,serif" font-size="14.00">Yonin shogi</text>
</g>
<!-- Shogi&#45;&gt;Yonin shogi -->
<g id="edge84" class="edge"><title>Shogi-&gt;Yonin shogi</title>
<path fill="none" stroke="black" d="M1068.29,-225.562C1027.44,-215.328 951.636,-196.318 887,-180 882.628,-178.896 878.095,-177.75 873.544,-176.598"></path>
<polygon fill="black" stroke="black" points="874.159,-173.143 863.605,-174.08 872.439,-179.929 874.159,-173.143"></polygon>
</g>
<!-- Kyoto shogi -->
<g id="node89" class="node"><title>Kyoto shogi</title>
<ellipse fill="none" stroke="black" cx="955" cy="-162" rx="58.2737" ry="18"></ellipse>
<text text-anchor="middle" x="955" y="-157.8" font-family="Times,serif" font-size="14.00">Kyoto shogi</text>
</g>
<!-- Shogi&#45;&gt;Kyoto shogi -->
<g id="edge92" class="edge"><title>Shogi-&gt;Kyoto shogi</title>
<path fill="none" stroke="black" stroke-dasharray="1,5" d="M1074.07,-221.284C1052.18,-210.573 1019.43,-194.537 993.805,-181.996"></path>
<polygon fill="black" stroke="black" points="995.243,-178.803 984.723,-177.55 992.165,-185.09 995.243,-178.803"></polygon>
</g>
<!-- Micro shogi -->
<g id="node91" class="node"><title>Micro shogi</title>
<ellipse fill="none" stroke="black" cx="1089" cy="-162" rx="57.4599" ry="18"></ellipse>
<text text-anchor="middle" x="1089" y="-157.8" font-family="Times,serif" font-size="14.00">Micro shogi</text>
</g>
<!-- Shogi&#45;&gt;Micro shogi -->
<g id="edge94" class="edge"><title>Shogi-&gt;Micro shogi</title>
<path fill="none" stroke="black" stroke-dasharray="1,5" d="M1095.78,-215.697C1094.78,-207.983 1093.59,-198.712 1092.49,-190.112"></path>
<polygon fill="black" stroke="black" points="1095.95,-189.576 1091.2,-180.104 1089,-190.469 1095.95,-189.576"></polygon>
</g>
<!-- Minishogi -->
<g id="node93" class="node"><title>Minishogi</title>
<ellipse fill="none" stroke="black" cx="1216" cy="-162" rx="50.6109" ry="18"></ellipse>
<text text-anchor="middle" x="1216" y="-157.8" font-family="Times,serif" font-size="14.00">Minishogi</text>
</g>
<!-- Shogi&#45;&gt;Minishogi -->
<g id="edge96" class="edge"><title>Shogi-&gt;Minishogi</title>
<path fill="none" stroke="black" d="M1119.64,-220.161C1137.18,-209.756 1162.21,-194.912 1182.36,-182.958"></path>
<polygon fill="black" stroke="black" points="1184.41,-185.808 1191.23,-177.696 1180.84,-179.787 1184.41,-185.808"></polygon>
</g>
<!-- Annan shogi -->
<g id="node95" class="node"><title>Annan shogi</title>
<ellipse fill="none" stroke="black" cx="1345" cy="-162" rx="60.1785" ry="18"></ellipse>
<text text-anchor="middle" x="1345" y="-157.8" font-family="Times,serif" font-size="14.00">Annan shogi</text>
</g>
<!-- Shogi&#45;&gt;Annan shogi -->
<g id="edge98" class="edge"><title>Shogi-&gt;Annan shogi</title>
<path fill="none" stroke="black" d="M1126.82,-224.833C1167.5,-213.304 1242.44,-192.066 1293,-177.738"></path>
<polygon fill="black" stroke="black" points="1294.1,-181.063 1302.77,-174.969 1292.19,-174.328 1294.1,-181.063"></polygon>
</g>
<!-- Okisaki shogi -->
<g id="node97" class="node"><title>Okisaki shogi</title>
<ellipse fill="none" stroke="black" cx="679" cy="-162" rx="64.1204" ry="18"></ellipse>
<text text-anchor="middle" x="679" y="-157.8" font-family="Times,serif" font-size="14.00">Okisaki shogi</text>
</g>
<!-- Shogi&#45;&gt;Okisaki shogi -->
<g id="edge100" class="edge"><title>Shogi-&gt;Okisaki shogi</title>
<path fill="none" stroke="black" d="M1065.9,-228.921C1004.63,-220.951 866.868,-202.139 752,-180 746.649,-178.969 741.096,-177.82 735.549,-176.62"></path>
<polygon fill="black" stroke="black" points="736.138,-173.166 725.618,-174.418 734.623,-180 736.138,-173.166"></polygon>
</g>
<!-- Heian shogi&#45;&gt;Sho shogi -->
<g id="edge52" class="edge"><title>Heian shogi-&gt;Sho shogi</title>
<path fill="none" stroke="black" stroke-dasharray="1,5" d="M1105.25,-359.697C1105.36,-351.983 1105.49,-342.712 1105.61,-334.112"></path>
<polygon fill="black" stroke="black" points="1109.11,-334.153 1105.76,-324.104 1102.11,-334.053 1109.11,-334.153"></polygon>
</g>
<!-- Heian dai shogi -->
<g id="node50" class="node"><title>Heian dai shogi</title>
<ellipse fill="none" stroke="black" cx="967" cy="-306" rx="71.4678" ry="18"></ellipse>
<text text-anchor="middle" x="967" y="-301.8" font-family="Times,serif" font-size="14.00">Heian dai shogi</text>
</g>
<!-- Heian shogi&#45;&gt;Heian dai shogi -->
<g id="edge50" class="edge"><title>Heian shogi-&gt;Heian dai shogi</title>
<path fill="none" stroke="black" stroke-dasharray="1,5" d="M1076.07,-362.326C1055.88,-352.083 1028.68,-338.285 1006.49,-327.032"></path>
<polygon fill="black" stroke="black" points="1007.83,-323.785 997.325,-322.382 1004.66,-330.027 1007.83,-323.785"></polygon>
</g>
<!-- Dai shogi -->
<g id="node53" class="node"><title>Dai shogi</title>
<ellipse fill="none" stroke="black" cx="546" cy="-234" rx="47.977" ry="18"></ellipse>
<text text-anchor="middle" x="546" y="-229.8" font-family="Times,serif" font-size="14.00">Dai shogi</text>
</g>
<!-- Heian dai shogi&#45;&gt;Dai shogi -->
<g id="edge54" class="edge"><title>Heian dai shogi-&gt;Dai shogi</title>
<path fill="none" stroke="black" stroke-dasharray="1,5" d="M914.792,-293.625C905.232,-291.661 895.329,-289.705 886,-288 785.524,-269.638 667.602,-252.162 600.354,-242.579"></path>
<polygon fill="black" stroke="black" points="600.8,-239.108 590.407,-241.167 599.816,-246.038 600.8,-239.108"></polygon>
</g>
<!-- Chu shogi -->
<g id="node55" class="node"><title>Chu shogi</title>
<ellipse fill="none" stroke="black" cx="546" cy="-162" rx="50.209" ry="18"></ellipse>
<text text-anchor="middle" x="546" y="-157.8" font-family="Times,serif" font-size="14.00">Chu shogi</text>
</g>
<!-- Dai shogi&#45;&gt;Chu shogi -->
<g id="edge56" class="edge"><title>Dai shogi-&gt;Chu shogi</title>
<path fill="none" stroke="black" d="M546,-215.697C546,-207.983 546,-198.712 546,-190.112"></path>
<polygon fill="black" stroke="black" points="549.5,-190.104 546,-180.104 542.5,-190.104 549.5,-190.104"></polygon>
</g>
<!-- Dai dai shogi -->
<g id="node57" class="node"><title>Dai dai shogi</title>
<ellipse fill="none" stroke="black" cx="415" cy="-162" rx="62.2952" ry="18"></ellipse>
<text text-anchor="middle" x="415" y="-157.8" font-family="Times,serif" font-size="14.00">Dai dai shogi</text>
</g>
<!-- Dai shogi&#45;&gt;Dai dai shogi -->
<g id="edge58" class="edge"><title>Dai shogi-&gt;Dai dai shogi</title>
<path fill="none" stroke="black" d="M519.49,-218.834C500.127,-208.488 473.615,-194.321 452.142,-182.847"></path>
<polygon fill="black" stroke="black" points="453.753,-179.74 443.284,-178.114 450.454,-185.913 453.753,-179.74"></polygon>
</g>
<!-- Tenjiku shogi -->
<g id="node59" class="node"><title>Tenjiku shogi</title>
<ellipse fill="none" stroke="black" cx="676" cy="-90" rx="64.1218" ry="18"></ellipse>
<text text-anchor="middle" x="676" y="-85.8" font-family="Times,serif" font-size="14.00">Tenjiku shogi</text>
</g>
<!-- Chu shogi&#45;&gt;Tenjiku shogi -->
<g id="edge60" class="edge"><title>Chu shogi-&gt;Tenjiku shogi</title>
<path fill="none" stroke="black" stroke-dasharray="1,5" d="M572.621,-146.666C591.645,-136.422 617.503,-122.498 638.598,-111.139"></path>
<polygon fill="black" stroke="black" points="640.467,-114.108 647.613,-106.285 637.149,-107.945 640.467,-114.108"></polygon>
</g>
<!-- Wa shogi -->
<g id="node75" class="node"><title>Wa shogi</title>
<ellipse fill="none" stroke="black" cx="546" cy="-90" rx="47.1688" ry="18"></ellipse>
<text text-anchor="middle" x="546" y="-85.8" font-family="Times,serif" font-size="14.00">Wa shogi</text>
</g>
<!-- Chu shogi&#45;&gt;Wa shogi -->
<g id="edge76" class="edge"><title>Chu shogi-&gt;Wa shogi</title>
<path fill="none" stroke="black" d="M546,-143.697C546,-135.983 546,-126.712 546,-118.112"></path>
<polygon fill="black" stroke="black" points="549.5,-118.104 546,-108.104 542.5,-118.104 549.5,-118.104"></polygon>
</g>
<!-- Maka dai dai shogi -->
<g id="node61" class="node"><title>Maka dai dai shogi</title>
<ellipse fill="none" stroke="black" cx="247" cy="-90" rx="84.1829" ry="18"></ellipse>
<text text-anchor="middle" x="247" y="-85.8" font-family="Times,serif" font-size="14.00">Maka dai dai shogi</text>
</g>
<!-- Dai dai shogi&#45;&gt;Maka dai dai shogi -->
<g id="edge62" class="edge"><title>Dai dai shogi-&gt;Maka dai dai shogi</title>
<path fill="none" stroke="black" stroke-dasharray="1,5" d="M381.003,-146.834C355.701,-136.292 320.884,-121.785 293.081,-110.201"></path>
<polygon fill="black" stroke="black" points="294.144,-106.852 283.567,-106.236 291.451,-113.313 294.144,-106.852"></polygon>
</g>
<!-- Cashew shogi -->
<g id="node67" class="node"><title>Cashew shogi</title>
<ellipse fill="none" stroke="black" cx="415" cy="-90" rx="64.4172" ry="18"></ellipse>
<text text-anchor="middle" x="415" y="-85.8" font-family="Times,serif" font-size="14.00">Cashew shogi</text>
</g>
<!-- Dai dai shogi&#45;&gt;Cashew shogi -->
<g id="edge68" class="edge"><title>Dai dai shogi-&gt;Cashew shogi</title>
<path fill="none" stroke="black" d="M415,-143.697C415,-135.983 415,-126.712 415,-118.112"></path>
<polygon fill="black" stroke="black" points="418.5,-118.104 415,-108.104 411.5,-118.104 418.5,-118.104"></polygon>
</g>
<!-- Tai shogi -->
<g id="node71" class="node"><title>Tai shogi</title>
<ellipse fill="none" stroke="black" cx="85" cy="-90" rx="47.3685" ry="18"></ellipse>
<text text-anchor="middle" x="85" y="-85.8" font-family="Times,serif" font-size="14.00">Tai shogi</text>
</g>
<!-- Dai dai shogi&#45;&gt;Tai shogi -->
<g id="edge72" class="edge"><title>Dai dai shogi-&gt;Tai shogi</title>
<path fill="none" stroke="black" stroke-dasharray="1,5" d="M368.977,-149.811C360.36,-147.808 351.417,-145.79 343,-144 258.933,-126.121 236.948,-126.43 153,-108 146.372,-106.545 139.405,-104.917 132.561,-103.261"></path>
<polygon fill="black" stroke="black" points="133.222,-99.819 122.675,-100.83 131.551,-106.617 133.222,-99.819"></polygon>
</g>
<!-- Dai dai shogi&#45;&gt;Ko shogi -->
<g id="edge86" class="edge"><title>Dai dai shogi-&gt;Ko shogi</title>
<path fill="none" stroke="black" stroke-dasharray="1,5" d="M458.912,-149.171C468.128,-147.101 477.834,-145.222 487,-144 965.699,-80.1982 1091.03,-138.47 1573,-108 1616.09,-105.276 1664.8,-100.645 1700.97,-96.9035"></path>
<polygon fill="black" stroke="black" points="1701.71,-100.345 1711.3,-95.8243 1700.99,-93.3826 1701.71,-100.345"></polygon>
</g>
<!-- Nutty shogi -->
<g id="node65" class="node"><title>Nutty shogi</title>
<ellipse fill="none" stroke="black" cx="676" cy="-18" rx="56.0573" ry="18"></ellipse>
<text text-anchor="middle" x="676" y="-13.8" font-family="Times,serif" font-size="14.00">Nutty shogi</text>
</g>
<!-- Tenjiku shogi&#45;&gt;Nutty shogi -->
<g id="edge66" class="edge"><title>Tenjiku shogi-&gt;Nutty shogi</title>
<path fill="none" stroke="black" d="M676,-71.6966C676,-63.9827 676,-54.7125 676,-46.1124"></path>
<polygon fill="black" stroke="black" points="679.5,-46.1043 676,-36.1043 672.5,-46.1044 679.5,-46.1043"></polygon>
</g>
<!-- Hishigata shogi -->
<g id="node63" class="node"><title>Hishigata shogi</title>
<ellipse fill="none" stroke="black" cx="232" cy="-18" rx="71.0761" ry="18"></ellipse>
<text text-anchor="middle" x="232" y="-13.8" font-family="Times,serif" font-size="14.00">Hishigata shogi</text>
</g>
<!-- Maka dai dai shogi&#45;&gt;Hishigata shogi -->
<g id="edge64" class="edge"><title>Maka dai dai shogi-&gt;Hishigata shogi</title>
<path fill="none" stroke="black" d="M243.292,-71.6966C241.639,-63.9827 239.653,-54.7125 237.81,-46.1124"></path>
<polygon fill="black" stroke="black" points="241.183,-45.149 235.665,-36.1043 234.338,-46.6157 241.183,-45.149"></polygon>
</g>
<!-- Macadamia shogi -->
<g id="node69" class="node"><title>Macadamia shogi</title>
<ellipse fill="none" stroke="black" cx="401" cy="-18" rx="79.1263" ry="18"></ellipse>
<text text-anchor="middle" x="401" y="-13.8" font-family="Times,serif" font-size="14.00">Macadamia shogi</text>
</g>
<!-- Maka dai dai shogi&#45;&gt;Macadamia shogi -->
<g id="edge70" class="edge"><title>Maka dai dai shogi-&gt;Macadamia shogi</title>
<path fill="none" stroke="black" d="M281.178,-73.4647C303.786,-63.1884 333.615,-49.6295 357.855,-38.6112"></path>
<polygon fill="black" stroke="black" points="359.528,-41.6956 367.183,-34.3713 356.631,-35.3231 359.528,-41.6956"></polygon>
</g>
<!-- Taikyoku shogi -->
<g id="node73" class="node"><title>Taikyoku shogi</title>
<ellipse fill="none" stroke="black" cx="71" cy="-18" rx="71.0819" ry="18"></ellipse>
<text text-anchor="middle" x="71" y="-13.8" font-family="Times,serif" font-size="14.00">Taikyoku shogi</text>
</g>
<!-- Tai shogi&#45;&gt;Taikyoku shogi -->
<g id="edge74" class="edge"><title>Tai shogi-&gt;Taikyoku shogi</title>
<path fill="none" stroke="black" stroke-dasharray="1,5" d="M81.5393,-71.6966C79.9965,-63.9827 78.1425,-54.7125 76.4225,-46.1124"></path>
<polygon fill="black" stroke="black" points="79.8141,-45.2237 74.4209,-36.1043 72.9501,-46.5966 79.8141,-45.2237"></polygon>
</g>
<!-- Tori shogi -->
<g id="node77" class="node"><title>Tori shogi</title>
<ellipse fill="none" stroke="black" cx="549" cy="-18" rx="51.0027" ry="18"></ellipse>
<text text-anchor="middle" x="549" y="-13.8" font-family="Times,serif" font-size="14.00">Tori shogi</text>
</g>
<!-- Wa shogi&#45;&gt;Tori shogi -->
<g id="edge78" class="edge"><title>Wa shogi-&gt;Tori shogi</title>
<path fill="none" stroke="black" stroke-dasharray="1,5" d="M546.742,-71.6966C547.072,-63.9827 547.469,-54.7125 547.838,-46.1124"></path>
<polygon fill="black" stroke="black" points="551.335,-46.2451 548.267,-36.1043 544.342,-45.9453 551.335,-46.2451"></polygon>
</g>
<!-- Goro goro shogi -->
<g id="node81" class="node"><title>Goro goro shogi</title>
<ellipse fill="none" stroke="black" cx="1490" cy="-90" rx="74.0002" ry="18"></ellipse>
<text text-anchor="middle" x="1490" y="-85.8" font-family="Times,serif" font-size="14.00">Goro goro shogi</text>
</g>
<!-- Dobutsu shogi&#45;&gt;Goro goro shogi -->
<g id="edge82" class="edge"><title>Dobutsu shogi-&gt;Goro goro shogi</title>
<path fill="none" stroke="black" stroke-dasharray="1,5" d="M1490,-143.697C1490,-135.983 1490,-126.712 1490,-118.112"></path>
<polygon fill="black" stroke="black" points="1493.5,-118.104 1490,-108.104 1486.5,-118.104 1493.5,-118.104"></polygon>
</g>
<!-- Chess -->
<g id="node98" class="node"><title>Chess</title>
<ellipse fill="none" stroke="black" cx="674" cy="-306" rx="34.1548" ry="18"></ellipse>
<text text-anchor="middle" x="674" y="-301.8" font-family="Times,serif" font-size="14.00">Chess</text>
</g>
<!-- Chess&#45;&gt;Okisaki shogi -->
<g id="edge102" class="edge"><title>Chess-&gt;Okisaki shogi</title>
<path fill="none" stroke="black" stroke-dasharray="1,5" d="M674.603,-287.871C675.455,-263.67 677.021,-219.211 678.035,-190.393"></path>
<polygon fill="black" stroke="black" points="681.541,-190.306 678.395,-180.189 674.545,-190.06 681.541,-190.306"></polygon>
</g>
<!-- Shatar -->
<g id="node108" class="node"><title>Shatar</title>
<ellipse fill="none" stroke="black" cx="365" cy="-234" rx="35.5569" ry="18"></ellipse>
<text text-anchor="middle" x="365" y="-229.8" font-family="Times,serif" font-size="14.00">Shatar</text>
</g>
<!-- Chess&#45;&gt;Shatar -->
<g id="edge112" class="edge"><title>Chess-&gt;Shatar</title>
<path fill="none" stroke="black" d="M648.195,-294.183C642.282,-291.943 635.976,-289.738 630,-288 553.343,-265.704 461.515,-249.632 408.55,-241.361"></path>
<polygon fill="black" stroke="black" points="408.908,-237.874 398.491,-239.811 407.842,-244.793 408.908,-237.874"></polygon>
</g>
<!-- Courier chess&#45;&gt;Chess -->
<g id="edge108" class="edge"><title>Courier chess-&gt;Chess</title>
<path fill="none" stroke="black" d="M620.589,-360.411C629.739,-351.261 641.235,-339.765 651.216,-329.784"></path>
<polygon fill="black" stroke="black" points="653.893,-332.057 658.489,-322.511 648.943,-327.107 653.893,-332.057"></polygon>
</g>
<!-- Gala -->
<g id="node103" class="node"><title>Gala</title>
<ellipse fill="none" stroke="black" cx="443" cy="-306" rx="28.9004" ry="18"></ellipse>
<text text-anchor="middle" x="443" y="-301.8" font-family="Times,serif" font-size="14.00">Gala</text>
</g>
<!-- Courier chess&#45;&gt;Gala -->
<g id="edge106" class="edge"><title>Courier chess-&gt;Gala</title>
<path fill="none" stroke="black" stroke-dasharray="1,5" d="M570.273,-362.616C545.527,-352.025 511.126,-337.228 481,-324 479.164,-323.194 477.279,-322.362 475.378,-321.521"></path>
<polygon fill="black" stroke="black" points="476.444,-318.165 465.885,-317.299 473.6,-324.561 476.444,-318.165"></polygon>
</g>
<!-- Rithmomachy -->
<g id="node106" class="node"><title>Rithmomachy</title>
<ellipse fill="none" stroke="black" cx="556" cy="-306" rx="65.1358" ry="18"></ellipse>
<text text-anchor="middle" x="556" y="-301.8" font-family="Times,serif" font-size="14.00">Rithmomachy</text>
</g>
<!-- Courier chess&#45;&gt;Rithmomachy -->
<g id="edge110" class="edge"><title>Courier chess-&gt;Rithmomachy</title>
<path fill="none" stroke="black" stroke-dasharray="1,5" d="M592.381,-360.055C586.661,-351.715 579.651,-341.491 573.315,-332.252"></path>
<polygon fill="black" stroke="black" points="576.054,-330.057 567.512,-323.789 570.281,-334.016 576.054,-330.057"></polygon>
</g>
<!-- Hiashatar -->
<g id="node110" class="node"><title>Hiashatar</title>
<ellipse fill="none" stroke="black" cx="286" cy="-162" rx="48.0513" ry="18"></ellipse>
<text text-anchor="middle" x="286" y="-157.8" font-family="Times,serif" font-size="14.00">Hiashatar</text>
</g>
<!-- Shatar&#45;&gt;Hiashatar -->
<g id="edge114" class="edge"><title>Shatar-&gt;Hiashatar</title>
<path fill="none" stroke="black" d="M347.858,-217.811C337.212,-208.377 323.334,-196.081 311.422,-185.525"></path>
<polygon fill="black" stroke="black" points="313.737,-182.9 303.931,-178.888 309.094,-188.14 313.737,-182.9"></polygon>
</g>
</g>
</svg>